<svg width="172" height="35" viewBox="0 0 172 35" fill="none" xmlns="http://www.w3.org/2000/svg">
<path d="M2.87442 29.716C1.12011 28.8921 0 27.1285 0 25.1904V5C0 2.23857 2.23858 0 5 0H8.88932C10.4535 0 11.9276 0.732006 12.8729 1.97821L20.0677 11.4631C20.6397 12.2171 20.1019 13.3 19.1555 13.3V13.3C18.2083 13.3 17.6708 12.2154 18.2444 11.4616L25.7497 1.59973C26.5168 0.591748 27.7108 0 28.9775 0V0C31.2177 0 33.0337 1.81602 33.0337 4.0562V17.7189C33.0337 20.2279 30.4273 21.8874 28.1539 20.8257V20.8257C26.9472 20.2621 26.1759 19.0508 26.1759 17.7189V17.5C26.1759 15.6333 26.2199 13.8889 26.3078 12.2667C26.3728 11.3076 26.4608 10.3408 26.5718 9.36622C26.6296 8.85982 27.3176 8.79616 27.4772 9.28021V9.28021C27.5291 9.43775 27.4966 9.61093 27.3909 9.73881L20.9008 17.5951C20.4622 18.126 19.8096 18.4333 19.1211 18.4333V18.4333C18.4316 18.4333 17.7783 18.1252 17.3397 17.5932L10.8125 9.67422C10.69 9.52553 10.6576 9.32211 10.728 9.14275V9.14275C10.9254 8.63979 11.9768 8.62194 12.2938 9.05954C13.0634 10.1222 14.0677 11.1801 14.1248 12.2333C14.2127 13.8333 14.1248 15.5889 14.1248 17.5V27.1276C14.1248 30.7911 10.3151 33.2107 6.99917 31.6533L2.87442 29.716Z" fill="#E2E2E2"/>
<path d="M1.40112 5.02675C1.40112 4.46892 1.58203 4.28269 2.04255 4.59747C3.31249 5.46552 6.3291 7.3224 10.7222 8.57177C11.6349 8.83134 12.2854 9.66062 12.2666 10.6093C12.1201 18.0041 12.2447 22.2104 12.2893 29.4008C12.2983 30.8486 10.81 31.823 9.48607 31.2367L2.59136 28.1838C1.86775 27.8634 1.40112 27.1464 1.40112 26.355V5.02675Z" fill="#616161"/>
<path d="M160.993 20.927C159.402 20.927 157.949 20.7078 156.633 20.2693C155.318 19.8147 154.181 19.1895 153.223 18.3938C152.265 17.5982 151.527 16.6645 151.007 15.5928C150.487 14.5048 150.227 13.3194 150.227 12.0366C150.227 10.7538 150.487 9.57653 151.007 8.50482C151.543 7.41686 152.29 6.47505 153.248 5.67938C154.206 4.88372 155.334 4.26667 156.633 3.82824C157.949 3.37357 159.394 3.14624 160.969 3.14624C162.544 3.14624 163.981 3.37357 165.28 3.82824C166.595 4.26667 167.732 4.89184 168.69 5.70374C169.648 6.49941 170.387 7.44122 170.907 8.52918C171.443 9.60089 171.71 10.7619 171.71 12.0122C171.71 13.2951 171.443 14.4804 170.907 15.5684C170.387 16.6401 169.648 17.5819 168.69 18.3938C167.732 19.1895 166.595 19.8147 165.28 20.2693C163.981 20.7078 162.552 20.927 160.993 20.927ZM160.969 16.0555C161.748 16.0555 162.471 15.9581 163.137 15.7633C163.803 15.5522 164.371 15.268 164.842 14.9108C165.313 14.5373 165.678 14.107 165.938 13.6198C166.214 13.1327 166.352 12.6049 166.352 12.0366C166.352 11.4683 166.214 10.9405 165.938 10.4534C165.678 9.96625 165.313 9.54406 164.842 9.18682C164.371 8.81334 163.803 8.52917 163.137 8.33432C162.471 8.12322 161.748 8.01767 160.969 8.01767C160.19 8.01767 159.467 8.12322 158.801 8.33432C158.152 8.52917 157.583 8.81334 157.096 9.18682C156.609 9.54406 156.236 9.96625 155.976 10.4534C155.716 10.9405 155.586 11.4683 155.586 12.0366C155.586 12.6049 155.716 13.1327 155.976 13.6198C156.236 14.107 156.609 14.5373 157.096 14.9108C157.583 15.268 158.152 15.5522 158.801 15.7633C159.467 15.9581 160.19 16.0555 160.969 16.0555Z" fill="#E2E2E2"/>
<path d="M130.591 20.6834C129.232 20.6834 128.131 19.582 128.131 18.2233V8.63336C128.131 5.87194 130.369 3.63336 133.131 3.63336H137.606C139.148 3.63336 140.423 3.85258 141.43 4.29101C142.453 4.72943 143.224 5.36272 143.744 6.19087C144.263 7.01901 144.523 8.02577 144.523 9.21115C144.523 10.3641 144.231 11.3871 143.646 12.2802C143.078 13.157 142.299 13.8471 141.308 14.3505C140.318 14.8539 139.181 15.1056 137.898 15.1056H135.84C134.3 15.1056 133.051 16.3542 133.051 17.8945V18.2233C133.051 19.582 131.95 20.6834 130.591 20.6834ZM140.768 20.6834C139.991 20.6834 139.262 20.3084 138.81 19.6764L136.404 16.3126C135.338 14.8225 136.269 12.7361 138.089 12.533C138.949 12.437 139.794 12.8117 140.301 13.5136L142.72 16.8675C143.869 18.4597 142.731 20.6834 140.768 20.6834ZM133.051 9.61305C133.051 10.6287 133.874 11.452 134.89 11.452H137.216C137.606 11.452 137.955 11.3871 138.263 11.2572C138.572 11.111 138.824 10.8999 139.018 10.6239C139.213 10.3478 139.311 9.9987 139.311 9.57651C139.311 9.17056 139.213 8.83768 139.018 8.57787C138.824 8.30182 138.564 8.09884 138.239 7.96894C137.914 7.83903 137.541 7.77408 137.119 7.77408H134.89C133.874 7.77408 133.051 8.59741 133.051 9.61305Z" fill="#E2E2E2"/>
<path d="M113.159 20.6834C111.706 20.6834 110.528 19.5056 110.528 18.0528V11.4277C110.528 9.59817 109.045 8.11508 107.216 8.11508H106.144C104.906 8.11508 103.903 7.11181 103.903 5.87422C103.903 4.63663 104.906 3.63336 106.144 3.63336H120.32C121.557 3.63336 122.561 4.63663 122.561 5.87422C122.561 7.11181 121.557 8.11508 120.32 8.11508H119.175C117.305 8.11508 115.789 9.63089 115.789 11.5007V18.0528C115.789 19.5056 114.612 20.6834 113.159 20.6834Z" fill="#E2E2E2"/>
<path d="M91.3455 20.927C89.9003 20.927 88.5769 20.7971 87.3753 20.5373C86.1899 20.2774 85.1263 19.9446 84.1845 19.5386C83.9725 19.4436 83.7646 19.3473 83.5609 19.2498C82.4459 18.7163 82.0936 17.3425 82.7082 16.2701C83.3532 15.1448 84.8006 14.8065 85.9839 15.3377C86.673 15.6471 87.3642 15.8945 88.0573 16.0799C89.4538 16.4371 90.696 16.6158 91.784 16.6158C92.0925 16.6158 92.4497 16.5995 92.8557 16.567C93.2616 16.5183 93.6026 16.4209 93.8787 16.2748C94.1547 16.1286 94.2927 15.8769 94.2927 15.5197C94.2927 15.3573 94.2359 15.2112 94.1222 15.0813C94.0086 14.9513 93.83 14.8458 93.5864 14.7646C93.3428 14.6834 93.0505 14.6103 92.7095 14.5454C92.3685 14.4804 91.9707 14.4236 91.516 14.3749C91.0614 14.3262 90.5499 14.2856 89.9815 14.2531C88.8611 14.1394 87.8462 13.9446 86.9369 13.6685C86.0275 13.3763 85.2481 13.0109 84.5986 12.5725C83.9653 12.134 83.47 11.6063 83.1128 10.9892C82.7718 10.3722 82.6013 9.67396 82.6013 8.89453C82.6013 7.96896 82.8286 7.14893 83.2833 6.43446C83.738 5.71998 84.3631 5.11917 85.1588 4.63203C85.9545 4.14488 86.8638 3.77953 87.8868 3.53595C88.9261 3.27614 90.0302 3.14624 91.1994 3.14624C92.4822 3.14624 93.6189 3.25991 94.6094 3.48724C95.5999 3.69834 96.4605 3.97438 97.1913 4.31538C98.2453 4.80729 98.4955 6.11138 97.844 7.07504L97.7233 7.25357C97.1319 8.12826 95.9684 8.39506 94.9504 8.1151C94.3171 7.92025 93.6595 7.7741 92.9775 7.67667C92.3117 7.56301 91.6784 7.50617 91.0776 7.50617C90.5093 7.50617 90.0059 7.53865 89.5675 7.6036C89.129 7.65232 88.7799 7.74974 88.5201 7.89589C88.2603 8.04203 88.1304 8.26125 88.1304 8.55353C88.1304 8.78087 88.2684 8.97572 88.5445 9.1381C88.8367 9.28425 89.194 9.38979 89.6162 9.45475C90.0546 9.5197 90.493 9.56841 90.9315 9.60089C91.3699 9.63337 91.7352 9.66584 92.0275 9.69832C92.9856 9.79575 93.9274 9.93377 94.853 10.1124C95.7785 10.2748 96.6148 10.5346 97.3618 10.8918C98.1087 11.2491 98.6933 11.7606 99.1155 12.4263C99.5539 13.0921 99.7731 13.9771 99.7731 15.0813C99.7731 16.3316 99.3996 17.3952 98.6527 18.272C97.9057 19.1489 96.8908 19.8147 95.608 20.2693C94.3415 20.7078 92.9206 20.927 91.3455 20.927Z" fill="#E2E2E2"/>
<path d="M66.434 20.6834C63.6726 20.6834 61.434 18.4448 61.434 15.6834V8.63336C61.434 5.87194 63.6726 3.63336 66.434 3.63336H74.7696C75.9466 3.63336 76.9008 4.58756 76.9008 5.76461C76.9008 6.94167 75.9466 7.89587 74.7696 7.89587H70.7385C68.3843 7.89587 66.476 9.80426 66.476 12.1584C66.476 14.5125 68.3843 16.4209 70.7385 16.4209H75.208C76.3851 16.4209 77.3393 17.3751 77.3393 18.5521C77.3393 19.7292 76.3851 20.6834 75.208 20.6834H66.434ZM66.135 14.0582C65.0319 14.0582 64.1377 13.164 64.1377 12.0609C64.1377 10.9579 65.0319 10.0637 66.135 10.0637H74.0023C75.1054 10.0637 75.9996 10.9579 75.9996 12.0609C75.9996 13.164 75.1054 14.0582 74.0023 14.0582H66.135Z" fill="#E2E2E2"/>
<path d="M39.9006 20.6834C38.1776 20.6834 37.0464 18.8833 37.7938 17.3309L43.422 5.64015C44.0126 4.41336 45.2538 3.63336 46.6154 3.63336C47.9784 3.63336 49.2207 4.41504 49.8105 5.64386L55.3886 17.2648C56.1489 18.8487 54.9944 20.6834 53.2375 20.6834C52.3239 20.6834 51.4905 20.1618 51.0913 19.3401L47.5545 12.0609C47.3597 11.6388 47.1811 11.2653 47.0187 10.9405C46.8725 10.5995 46.7426 10.2748 46.629 9.96623C46.5315 9.6577 46.4341 9.3573 46.3367 9.06501C46.2884 8.91213 46.2421 8.75726 46.1978 8.6004C46.1285 8.3549 46.3159 8.11508 46.571 8.11508C46.8243 8.11508 47.0114 8.3518 46.9408 8.59507C46.8901 8.77019 46.8348 8.94308 46.7751 9.11373C46.6777 9.42225 46.564 9.73077 46.4341 10.0393C46.3042 10.3478 46.1662 10.6645 46.02 10.9892C45.8739 11.314 45.7115 11.6712 45.5329 12.0609L42.006 19.3622C41.6158 20.17 40.7977 20.6834 39.9006 20.6834ZM42.899 18.3451C41.605 18.3451 40.7384 17.0144 41.2617 15.8309C41.5483 15.1827 42.1903 14.7646 42.899 14.7646H50.1257C50.959 14.7646 51.6821 15.3395 51.8699 16.1514C52.1294 17.2734 51.2773 18.3451 50.1257 18.3451H42.899Z" fill="#E2E2E2"/>
</svg>
