<svg width="200" height="211" viewBox="0 0 200 211" fill="none" xmlns="http://www.w3.org/2000/svg">
<g clip-path="url(#clip0_117_100)">
<path d="M2.8901 172.041C1.12727 171.221 0 169.453 0 167.508V5.49999C0 2.73857 2.23858 0.5 5 0.5H66.3832C67.9397 0.5 69.4075 1.2249 70.3536 2.4609L123.781 72.2609C126.3 75.5506 123.954 80.3 119.811 80.3H112.133C107.986 80.3 105.642 75.5433 108.167 72.2547L161.77 2.45465C162.716 1.22233 164.182 0.5 165.735 0.5H195C197.761 0.5 200 2.73858 200 5.5V131.304C200 134.955 196.214 137.375 192.9 135.842L161.38 121.254C159.612 120.436 158.48 118.665 158.48 116.716V105.5C158.48 94.3 158.746 83.8333 159.278 74.1C159.672 68.3406 160.206 62.5346 160.879 56.6819C161.23 53.6264 165.38 53.2394 166.351 56.1578C166.67 57.1166 166.47 58.1722 165.823 58.9484L123.849 109.302C122.899 110.441 121.492 111.1 120.008 111.1H111.52C110.034 111.1 108.626 110.439 107.676 109.297L65.4787 58.5635C64.7283 57.6613 64.5303 56.4213 64.9624 55.3302C66.1625 52.3001 72.4886 52.1959 74.4105 54.828C79.0729 61.2136 85.1711 67.5709 85.5172 73.9C86.0496 83.5 85.5172 94.0333 85.5172 105.5V202.658C85.5172 206.314 81.7218 208.733 78.4073 207.191L2.8901 172.041Z" fill="#4FC3F7"/>
<path d="M8.48317 26.2906C8.48317 25.7296 8.31522 25.2198 8.76851 25.5503C12.3638 28.1712 35.4792 45.1093 72.881 53.9981C73.8058 54.2179 74.4659 55.0737 74.4437 56.024C73.1652 110.884 74.3188 136.398 74.4752 192.31C74.4793 193.755 72.996 194.75 71.6727 194.169L9.67952 166.965C8.95263 166.646 8.48317 165.928 8.48317 165.134V26.2906Z" fill="#4E6569"/>
</g>
<defs>
<clipPath id="clip0_117_100">
<rect width="200" height="210" fill="white" transform="translate(0 0.5)"/>
</clipPath>
</defs>
</svg>
