<svg width="90" height="95" viewBox="0 0 90 95" fill="none" xmlns="http://www.w3.org/2000/svg">
<path d="M2.88094 78.3415C1.12308 77.519 0 75.7535 0 73.8127V5C0 2.23858 2.23858 0 5 0H28.5063C30.0674 0 31.5388 0.729049 32.4844 1.97102L54.6653 31.1022C56.2253 33.151 54.7642 36.1 52.1891 36.1C49.6116 36.1 48.1512 33.1465 49.7158 31.0983L71.9709 1.96476C72.9169 0.726482 74.386 0 75.9443 0H85C87.7614 0 90 2.23858 90 5V54.8715C90 58.5271 86.2052 60.9469 82.8908 59.4049L74.2068 55.3646C72.4436 54.5442 71.316 52.7759 71.316 50.8312V47.5C71.316 42.4333 71.4358 37.6984 71.6753 33.2952C71.8524 30.6912 72.0923 28.066 72.395 25.4197C72.5527 24.042 74.4242 23.8682 74.8599 25.1848C75.0023 25.6149 74.913 26.0881 74.6238 26.4368L56.5569 48.2249C55.607 49.3704 54.1962 50.0333 52.708 50.0333H51.4814C49.9913 50.0333 48.5789 49.3687 47.629 48.2206L29.4614 26.262C29.126 25.8565 29.0374 25.3007 29.2303 24.8111C29.7691 23.4436 32.6262 23.3957 33.4903 24.5847C35.5877 27.4708 38.3271 30.3441 38.4828 33.2048C38.7223 37.5476 38.4828 42.3127 38.4828 47.5V87.1402C38.4828 90.8005 34.679 93.2202 31.3637 91.6689L2.88094 78.3415Z" fill="#4268E1"/>
<path d="M3.8174 12.1461C3.8174 11.587 3.87823 11.2857 4.33127 11.6133C6.78866 13.3908 16.6045 20.1658 31.9285 23.9895C32.8499 24.2194 33.5006 25.0607 33.4793 26.0101C32.9491 49.6654 33.4218 61.2501 33.5084 85.0869C33.5137 86.5336 32.0273 87.5127 30.7036 86.9288L5.01019 75.5945C4.28521 75.2746 3.8174 74.557 3.8174 73.7646V12.1461Z" fill="url(#paint0_linear_67_73)"/>
<defs>
<linearGradient id="paint0_linear_67_73" x1="111" y1="-79.5" x2="-12" y2="97.5" gradientUnits="userSpaceOnUse">
<stop/>
<stop offset="0.5" stop-color="#333333"/>
<stop offset="0.75" stop-color="#4D4D4D"/>
<stop offset="1" stop-color="#666666"/>
</linearGradient>
</defs>
</svg>
